<svg width="82" height="82" viewBox="0 0 82 82" fill="none" xmlns="http://www.w3.org/2000/svg">
<g clip-path="url(#clip0_9_92)">
<path d="M46.0889 49.828C50.9672 47.0115 52.6446 40.7512 49.8281 35.8729C47.0116 30.9946 40.7514 29.3172 35.8731 32.1337C30.9948 34.9502 29.3173 41.2105 32.1338 46.0888C34.9503 50.967 41.2104 52.6446 46.0889 49.828ZM37.3325 34.6614C40.8169 32.6497 45.2886 33.8478 47.3004 37.3323C49.3122 40.8169 48.1141 45.2884 44.6295 47.3003C41.1449 49.3121 36.6734 48.1139 34.6616 44.6294C32.6497 41.1448 33.8478 36.6733 37.3325 34.6614Z" fill="#A38D5E"/>
<path d="M23.8476 37.1847C24.6062 37.4574 25.4421 37.0633 25.7146 36.3047C25.723 36.2815 25.7315 36.2559 25.7386 36.2319C25.7434 36.2165 25.7477 36.201 25.7519 36.1855C25.7592 36.1579 25.7665 36.1276 25.7722 36.0995C25.9346 35.31 25.4265 34.5384 24.6369 34.3758C24.2727 34.3009 23.9121 34.3686 23.6134 34.541C23.2911 34.7271 23.0408 35.0352 22.9358 35.417C22.7299 36.1479 23.122 36.924 23.8476 37.1847Z" fill="#A38D5E"/>
<path d="M26.3515 75.6421C27.326 77.3301 28.8997 78.5376 30.7823 79.042C32.6649 79.5465 34.6315 79.2876 36.3194 78.313C38.0074 77.3385 39.2149 75.7649 39.7193 73.8822C39.8076 73.5526 39.871 73.2206 39.9128 72.8878C44.5266 71.1467 49.0017 66.9636 52.66 61.2478C55.2574 61.131 57.7399 60.7956 60.0484 60.2368C67.3052 58.4796 72.0476 54.7265 73.4032 49.6684C74.7586 44.6103 72.5278 38.9884 67.1219 33.8386C65.402 32.2003 63.4199 30.6687 61.2287 29.2688C60.9185 22.4893 59.1345 16.629 56.0095 12.8144C56.1396 12.5054 56.2507 12.1862 56.339 11.8566C56.8436 9.97395 56.5847 8.00748 55.6101 6.31944C54.6355 4.6314 53.0619 3.42396 51.1793 2.91959C49.2966 2.41521 47.3301 2.67401 45.6421 3.64854C43.9542 4.62307 42.7467 6.1967 42.2423 8.07935C42.1541 8.40848 42.0907 8.74031 42.0488 9.07275C41.1753 9.40145 40.3064 9.81555 39.4467 10.3119C35.7661 12.4369 32.2566 16.0495 29.2784 20.715C26.6893 20.8327 24.2148 21.1677 21.913 21.7249C19.3278 22.3509 17.062 23.2302 15.1542 24.3316C11.7072 26.3218 9.4307 29.0373 8.55818 32.2933C7.20287 37.3513 9.43365 42.9732 14.8397 48.1231C16.5562 49.7583 18.5342 51.2873 20.7202 52.685C20.791 54.2485 20.9381 55.7712 21.1679 57.2365C21.9428 62.1776 23.5897 66.2683 25.9516 69.148C25.8216 69.4568 25.7106 69.7759 25.6225 70.1051C25.118 71.9876 25.377 73.9542 26.3515 75.6421ZM65.1086 35.952C69.7055 40.3311 71.65 44.934 70.5839 48.9128C69.5178 52.8916 65.5323 55.9058 59.3617 57.3996C57.8066 57.7761 56.1632 58.0424 54.453 58.2016C56.4457 54.5188 58.1111 50.3525 59.3065 45.8909C60.502 41.4294 61.1429 36.9886 61.2585 32.8028C62.66 33.7959 63.9501 34.8483 65.1086 35.952ZM44.9139 10.1328C44.9138 10.1239 44.913 10.1149 44.9128 10.1061C44.9 9.6829 44.949 9.25543 45.0617 8.83489C45.3643 7.70526 46.0888 6.76099 47.1015 6.17629C48.1143 5.59158 49.2943 5.43628 50.4238 5.73893C51.5533 6.04159 52.4976 6.76609 53.0823 7.77883C53.667 8.79158 53.8223 9.97159 53.5197 11.1011C53.4086 11.5156 53.2403 11.9047 53.0222 12.2607C53.0107 12.2792 52.9981 12.2972 52.9875 12.3162C52.6139 12.9058 52.1015 13.4007 51.4798 13.7596C50.467 14.3443 49.287 14.4996 48.1575 14.197C47.0279 13.8944 46.0837 13.1698 45.499 12.1571C45.1365 11.5293 44.9395 10.8372 44.9139 10.1328ZM42.3179 12.1209C42.478 12.6361 42.6948 13.1377 42.9712 13.6165C43.9458 15.3044 45.5194 16.512 47.402 17.0163C49.2847 17.5207 51.2512 17.2619 52.9392 16.2874C53.4182 16.0108 53.857 15.6845 54.2537 15.318C56.2067 18.0298 57.5547 21.9398 58.0971 26.5411C58.1339 26.8546 58.1666 27.1705 58.1962 27.4881C54.4889 25.4884 50.3228 23.8425 45.8913 22.6551C41.4644 21.4689 37.0378 20.8114 32.8312 20.6885C35.7112 16.6224 39.0069 13.6057 42.3179 12.1209ZM16.853 46.0096C12.256 41.6304 10.3116 37.0276 11.3777 33.0487C12.4437 29.07 16.4292 26.0559 22.5998 24.5619C24.1497 24.1866 25.7874 23.9209 27.4913 23.7614C26.2458 26.0725 25.1247 28.5813 24.1639 31.2503C23.8909 32.0087 24.2843 32.8448 25.0427 33.1178C25.8011 33.3908 26.6373 32.9974 26.9101 32.2389C28.0386 29.1043 29.4143 26.1902 30.9573 23.5854C35.4511 23.5411 40.2843 24.1744 45.1358 25.4743C49.993 26.7758 54.5 28.6468 58.3724 30.9357C58.421 35.4638 57.7843 40.2951 56.4873 45.1357C55.1903 49.9762 53.3261 54.4788 51.0199 58.3758C46.5217 58.4218 41.6829 57.7885 36.826 56.4871C31.9681 55.1854 27.4603 53.314 23.5874 51.0246C23.5564 47.6034 23.9118 43.9386 24.6791 40.1917C24.8408 39.402 24.3318 38.631 23.542 38.4692C23.1782 38.3948 22.8183 38.4626 22.52 38.6348C22.1712 38.8362 21.9067 39.1805 21.8195 39.6061C21.1568 42.8431 20.7821 46.0555 20.6935 49.1514C19.2957 48.1608 18.0088 47.1107 16.853 46.0096ZM23.7563 54.4686C27.4659 56.4705 31.6354 58.1182 36.0704 59.3065C40.5019 60.494 44.933 61.1515 49.1432 61.2735C48.9589 61.5336 48.7728 61.7908 48.5842 62.0436C45.8136 65.7575 42.6912 68.4698 39.644 69.8417C39.4838 69.3261 39.2668 68.824 38.9903 68.345C38.0157 66.6571 36.4421 65.4495 34.5595 64.9451C32.6768 64.4408 30.7103 64.6996 29.0223 65.6741C28.5418 65.9515 28.1018 66.2791 27.7043 66.6469C25.5537 63.6862 24.2091 59.4308 23.7563 54.4686ZM28.4419 70.8605C28.7446 69.7309 29.4691 68.7867 30.4818 68.2019C31.4945 67.6172 32.6746 67.4619 33.8041 67.7646C34.9337 68.0672 35.8779 68.7918 36.4626 69.8045C36.8244 70.4311 37.0213 71.1216 37.0476 71.8246C37.0477 71.8355 37.0487 71.8466 37.0489 71.8576C37.0615 72.2802 37.0125 72.7069 36.8999 73.1268C36.5973 74.2563 35.8728 75.2006 34.86 75.7853C33.8473 76.37 32.6673 76.5253 31.5378 76.2226C30.4081 75.92 29.464 75.1955 28.8793 74.1827C28.2945 73.17 28.1393 71.9901 28.4419 70.8605Z" fill="#A38D5E"/>
</g>
<defs>
<clipPath id="clip0_9_92">
<rect width="60" height="60" fill="white" transform="translate(81.9615 51.9615) rotate(150)"/>
</clipPath>
</defs>
</svg>
