<svg width="99" height="18" viewBox="0 0 99 18" fill="none" xmlns="http://www.w3.org/2000/svg">
<path d="M9 5.90594L9.46654 7.02764L9.81839 7.87358L10.7317 7.9468L11.9426 8.04388L11.02 8.83422L10.3242 9.43025L10.5368 10.3214L10.8186 11.5031L9.78188 10.8699L9 10.3923L8.21812 10.8699L7.18136 11.5031L7.46324 10.3214L7.67582 9.43025L6.98001 8.83422L6.05737 8.04388L7.26835 7.9468L8.18161 7.87358L8.53346 7.02764L9 5.90594Z" fill="#A38D5E" stroke="#A38D5E" stroke-width="3"/>
<path d="M29 5.90594L29.4665 7.02764L29.8184 7.87358L30.7317 7.9468L31.9426 8.04388L31.02 8.83422L30.3242 9.43025L30.5368 10.3214L30.8186 11.5031L29.7819 10.8699L29 10.3923L28.2181 10.8699L27.1814 11.5031L27.4632 10.3214L27.6758 9.43025L26.98 8.83422L26.0574 8.04388L27.2683 7.9468L28.1816 7.87358L28.5335 7.02764L29 5.90594Z" fill="#A38D5E" stroke="#A38D5E" stroke-width="3"/>
<path d="M50 5.90594L50.4665 7.02764L50.8184 7.87358L51.7317 7.9468L52.9426 8.04388L52.02 8.83422L51.3242 9.43025L51.5368 10.3214L51.8186 11.5031L50.7819 10.8699L50 10.3923L49.2181 10.8699L48.1814 11.5031L48.4632 10.3214L48.6758 9.43025L47.98 8.83422L47.0574 8.04388L48.2683 7.9468L49.1816 7.87358L49.5335 7.02764L50 5.90594Z" fill="#A38D5E" stroke="#A38D5E" stroke-width="3"/>
<path d="M70 5.90594L70.4665 7.02764L70.8184 7.87358L71.7317 7.9468L72.9426 8.04388L72.02 8.83422L71.3242 9.43025L71.5368 10.3214L71.8186 11.5031L70.7819 10.8699L70 10.3923L69.2181 10.8699L68.1814 11.5031L68.4632 10.3214L68.6758 9.43025L67.98 8.83422L67.0574 8.04388L68.2683 7.9468L69.1816 7.87358L69.5335 7.02764L70 5.90594Z" fill="#A38D5E" stroke="#A38D5E" stroke-width="3"/>
<path d="M90 3.30198L91.3899 6.64361L91.5071 6.92559L91.8116 6.95L95.4191 7.23921L92.6705 9.59367L92.4386 9.79235L92.5095 10.0894L93.3492 13.6098L90.2606 11.7233L90 11.5641L89.7394 11.7233L86.6508 13.6098L87.4905 10.0894L87.5614 9.79235L87.3295 9.59367L84.5809 7.23921L88.1884 6.95L88.4929 6.92559L88.6101 6.64361L90 3.30198Z" stroke="#A38D5E"/>
</svg>
