<svg width="99" height="18" viewBox="0 0 99 18" fill="none" xmlns="http://www.w3.org/2000/svg">
<path d="M9 5.90594L9.46654 7.02764L9.81839 7.87358L10.7317 7.9468L11.9426 8.04388L11.02 8.83422L10.3242 9.43025L10.5368 10.3214L10.8186 11.5031L9.78188 10.8699L9 10.3923L8.21812 10.8699L7.18136 11.5031L7.46324 10.3214L7.67582 9.43025L6.98001 8.83422L6.05737 8.04388L7.26835 7.9468L8.18161 7.87358L8.53346 7.02764L9 5.90594Z" fill="#A38D5E" stroke="#A38D5E" stroke-width="3"/>
<path d="M50 3.30198L51.3899 6.64361L51.5071 6.92559L51.8116 6.95L55.4191 7.23921L52.6705 9.59367L52.4386 9.79235L52.5095 10.0894L53.3492 13.6098L50.2606 11.7233L50 11.5641L49.7394 11.7233L46.6508 13.6098L47.4905 10.0894L47.5614 9.79235L47.3295 9.59367L44.5809 7.23921L48.1884 6.95L48.4929 6.92559L48.6101 6.64361L50 3.30198Z" stroke="#A38D5E"/>
<path d="M29 3.30198L30.3899 6.64361L30.5071 6.92559L30.8116 6.95L34.4191 7.23921L31.6705 9.59367L31.4386 9.79235L31.5095 10.0894L32.3492 13.6098L29.2606 11.7233L29 11.5641L28.7394 11.7233L25.6508 13.6098L26.4905 10.0894L26.5614 9.79235L26.3295 9.59367L23.5809 7.23921L27.1884 6.95L27.4929 6.92559L27.6101 6.64361L29 3.30198Z" stroke="#A38D5E"/>
<path d="M70 3.30198L71.3899 6.64361L71.5071 6.92559L71.8116 6.95L75.4191 7.23921L72.6705 9.59367L72.4386 9.79235L72.5095 10.0894L73.3492 13.6098L70.2606 11.7233L70 11.5641L69.7394 11.7233L66.6508 13.6098L67.4905 10.0894L67.5614 9.79235L67.3295 9.59367L64.5809 7.23921L68.1884 6.95L68.4929 6.92559L68.6101 6.64361L70 3.30198Z" stroke="#A38D5E"/>
<path d="M90 3.30198L91.3899 6.64361L91.5071 6.92559L91.8116 6.95L95.4191 7.23921L92.6705 9.59367L92.4386 9.79235L92.5095 10.0894L93.3492 13.6098L90.2606 11.7233L90 11.5641L89.7394 11.7233L86.6508 13.6098L87.4905 10.0894L87.5614 9.79235L87.3295 9.59367L84.5809 7.23921L88.1884 6.95L88.4929 6.92559L88.6101 6.64361L90 3.30198Z" stroke="#A38D5E"/>
</svg>
