<svg width="145" height="145" viewBox="0 0 145 145" fill="none" xmlns="http://www.w3.org/2000/svg">
<g clip-path="url(#clip0_9_105)">
<path d="M59.9534 46.5608C55.4675 48.8358 53.7274 54.149 56.0039 58.6379C58.2804 63.1268 63.5921 64.8639 68.081 62.5874C72.5669 60.3125 74.3069 54.9992 72.0305 50.5103C69.754 46.0214 64.4422 44.2843 59.9534 46.5608ZM66.4536 59.3785C63.7285 60.7605 60.5903 59.7343 59.2083 57.0091C57.8262 54.2839 58.8525 51.1458 61.5777 49.7637C64.3028 48.3817 67.441 49.4079 68.823 52.1331C70.2051 54.8583 69.1788 57.9965 66.4536 59.3785Z" fill="#A38D5E"/>
<path d="M93.4481 72.8856C87.5969 61.3479 80.9336 48.2088 78.4956 43.4014C73.9442 34.4266 61.8404 25.2553 48.5755 24.1255C41.6494 35.4948 41.897 50.6789 46.5292 59.8129C48.9672 64.6202 55.6305 77.7594 61.4817 89.2971L55.5346 117.293L119.632 84.7867L93.4495 72.8811L93.4481 72.8856ZM69.9308 105.965L60.6376 110.678L63.9989 94.2683L69.9308 105.965ZM98.7751 91.3373L73.1368 104.339L49.7321 58.1886C46.0751 50.9775 45.2782 38.2856 50.5259 27.9714C61.9463 29.8364 71.6357 37.8146 75.3734 45.185L98.7781 91.3358L98.7751 91.3373ZM96.0491 78.0145L111.274 84.9985L101.981 89.7115C100.599 86.9863 98.4871 82.8219 96.0491 78.0145Z" fill="#A38D5E"/>
<path d="M87.6047 105.063L90.8106 103.437L98.9367 119.461L95.7308 121.087L87.6047 105.063Z" fill="#A38D5E"/>
<path d="M95.618 100.999L98.8239 99.3734L103.7 108.988L100.494 110.614L95.618 100.999Z" fill="#A38D5E"/>
<path d="M79.5944 109.125L82.8003 107.5L87.6763 117.114L84.4704 118.74L79.5944 109.125Z" fill="#A38D5E"/>
</g>
<defs>
<clipPath id="clip0_9_105">
<rect width="107.805" height="107.805" fill="white" transform="translate(0 48.7598) rotate(-26.8911)"/>
</clipPath>
</defs>
</svg>
