<svg width="202" height="202" viewBox="0 0 202 202" fill="none" xmlns="http://www.w3.org/2000/svg">
<g clip-path="url(#clip0_11_139)">
<path d="M26.9106 121.989C1.72372 157.907 -6.32472 185.133 4.92415 196.729C8.26347 200.176 13.042 201.95 19.1399 202C31.0011 202.101 47.603 195.555 66.3385 184.079C79.4495 192.317 94.8962 197.152 111.485 197.152C158.476 197.152 196.704 158.924 196.704 111.933C196.704 95.344 191.863 79.8973 183.631 66.7863C194.962 48.4358 201.975 31.6004 201.975 19.3099C201.975 13.5214 200.429 8.7365 197.077 5.27094C185.872 -6.29987 157.794 1.78645 121.971 26.9165C121.794 27.0364 121.686 27.2132 121.548 27.3584C118.24 26.967 114.901 26.7082 111.492 26.7082C64.5015 26.7082 26.273 64.9367 26.273 111.927C26.2667 115.342 26.5192 118.688 26.9106 121.989ZM19.1967 195.688C14.8537 195.65 11.5775 194.52 9.46284 192.342C1.40809 184.022 8.86946 160.249 28.4635 130.89C33.0337 150.919 44.6803 168.228 60.6257 180.152C43.9922 190.082 29.404 195.776 19.1967 195.688ZM190.392 111.933C190.392 155.445 154.998 190.84 111.485 190.84C97.2066 190.84 83.843 186.97 72.2722 180.31C90.8562 168.184 111.189 151.582 130.966 131.862C149.79 113.095 167.054 92.2446 179.862 72.72C186.522 84.2908 190.392 97.6607 190.392 111.933ZM192.538 9.66445C199.52 16.867 195 36.0886 179.875 61.307C167.919 45.2038 150.484 33.4499 130.297 28.8797C160.205 8.78701 184.37 1.23095 192.538 9.66445ZM111.485 33.027C138.314 33.027 162.023 46.5105 176.283 67.0261C164.675 85.1556 148.041 105.924 126.509 127.393C106.334 147.511 85.2697 164.561 66.4016 176.599C45.987 162.32 32.5792 138.679 32.5792 111.933C32.5792 68.4275 67.9734 33.027 111.485 33.027Z" fill="#A38D5E"/>
<path d="M71.1609 125.915C79.8595 125.915 86.9421 118.833 86.9421 110.134C86.9421 101.436 79.8595 94.353 71.1609 94.353C62.4623 94.353 55.3796 101.436 55.3796 110.134C55.3796 118.833 62.4623 125.915 71.1609 125.915ZM61.6921 110.134C61.6921 104.914 65.9405 100.665 71.1609 100.665C76.3813 100.665 80.6296 104.914 80.6296 110.134C80.6296 115.355 76.3813 119.603 71.1609 119.603C65.9405 119.603 61.6921 115.355 61.6921 110.134Z" fill="#A38D5E"/>
<path d="M143.199 82.8453C143.199 75.8826 137.537 70.2203 130.574 70.2203C123.611 70.2203 117.949 75.8826 117.949 82.8453C117.949 89.808 123.611 95.4703 130.574 95.4703C137.537 95.4703 143.199 89.808 143.199 82.8453ZM124.261 82.8453C124.261 79.3671 127.096 76.5328 130.574 76.5328C134.052 76.5328 136.886 79.3671 136.886 82.8453C136.886 86.3235 134.052 89.1578 130.574 89.1578C127.096 89.1578 124.261 86.3235 124.261 82.8453Z" fill="#A38D5E"/>
<path d="M104.762 170.595C104.762 177.558 110.425 183.22 117.387 183.22C124.35 183.22 130.012 177.558 130.012 170.595C130.012 163.633 124.35 157.97 117.387 157.97C110.425 157.97 104.762 163.633 104.762 170.595ZM123.7 170.595C123.7 174.074 120.865 176.908 117.387 176.908C113.909 176.908 111.075 174.074 111.075 170.595C111.075 167.117 113.909 164.283 117.387 164.283C120.865 164.283 123.7 167.117 123.7 170.595Z" fill="#A38D5E"/>
</g>
<defs>
<clipPath id="clip0_11_139">
<rect width="202" height="202" fill="white" transform="translate(0 202) rotate(-90)"/>
</clipPath>
</defs>
</svg>
