<svg width="187" height="148" viewBox="0 0 187 148" fill="none" xmlns="http://www.w3.org/2000/svg">
<path d="M78.8131 76.9741L44.8295 74.7129C41.4114 74.4924 38.8118 71.4899 39.0573 68.1151L40.1631 51.8303C40.3835 48.4122 43.386 45.8126 46.7609 46.0581L80.7444 48.3193L78.8131 76.9741Z" stroke="#A38D5E" stroke-width="3.75" stroke-linecap="round" stroke-linejoin="round"/>
<path d="M80.4537 51.254L109.141 53.1658L107.612 76.1158L78.9243 74.204L80.4537 51.254Z" stroke="#A38D5E" stroke-width="3.75" stroke-linecap="round" stroke-linejoin="round"/>
<path d="M131.475 76.1872L107.771 74.6307L109.121 54.5681L132.825 56.1246C135.592 56.3169 137.661 58.7016 137.469 61.4684L136.776 71.5681C136.602 74.2666 134.217 76.3362 131.475 76.1872Z" stroke="#A38D5E" stroke-width="3.75" stroke-linecap="round" stroke-linejoin="round"/>
<path d="M95.2919 75.7163L139.234 106.926" stroke="#A38D5E" stroke-width="3.75" stroke-linecap="round" stroke-linejoin="round"/>
<path d="M95.5088 75.5911L100.783 129.126" stroke="#A38D5E" stroke-width="3.75" stroke-linecap="round" stroke-linejoin="round"/>
</svg>
