<svg width="99" height="18" viewBox="0 0 99 18" fill="none" xmlns="http://www.w3.org/2000/svg">
<path d="M9 5.90594L9.46654 7.02764L9.81839 7.87358L10.7317 7.9468L11.9426 8.04388L11.02 8.83422L10.3242 9.43025L10.5368 10.3214L10.8186 11.5031L9.78188 10.8699L9 10.3923L8.21812 10.8699L7.18136 11.5031L7.46324 10.3214L7.67582 9.43025L6.98001 8.83422L6.05737 8.04388L7.26835 7.9468L8.18161 7.87358L8.53346 7.02764L9 5.90594Z" fill="#A38D5E" stroke="#A38D5E" stroke-width="3"/>
<path d="M29 5.90594L29.4665 7.02764L29.8184 7.87358L30.7317 7.9468L31.9426 8.04388L31.02 8.83422L30.3242 9.43025L30.5368 10.3214L30.8186 11.5031L29.7819 10.8699L29 10.3923L28.2181 10.8699L27.1814 11.5031L27.4632 10.3214L27.6758 9.43025L26.98 8.83422L26.0574 8.04388L27.2683 7.9468L28.1816 7.87358L28.5335 7.02764L29 5.90594Z" fill="#A38D5E" stroke="#A38D5E" stroke-width="3"/>
<path d="M49.5 5.6851L50.1137 7.06216L50.4784 7.88056L51.3719 7.94741L52.716 8.04799L51.7731 8.80181L51.0167 9.40656L51.2565 10.3448L51.5796 11.6089L50.2429 10.8469L49.5 10.4234L48.7571 10.8469L47.4204 11.6089L47.7435 10.3448L47.9833 9.40656L47.2269 8.80181L46.284 8.04799L47.6281 7.94741L48.5216 7.88056L48.8863 7.06216L49.5 5.6851Z" fill="#A38D5E" stroke="#A38D5E" stroke-width="3"/>
<path d="M70 3.30198L71.3899 6.64361L71.5071 6.92559L71.8116 6.95L75.4191 7.23921L72.6705 9.59367L72.4386 9.79235L72.5095 10.0894L73.3492 13.6098L70.2606 11.7233L70 11.5641L69.7394 11.7233L66.6508 13.6098L67.4905 10.0894L67.5614 9.79235L67.3295 9.59367L64.5809 7.23921L68.1884 6.95L68.4929 6.92559L68.6101 6.64361L70 3.30198Z" stroke="#A38D5E"/>
<path d="M90 3.30198L91.3899 6.64361L91.5071 6.92559L91.8116 6.95L95.4191 7.23921L92.6705 9.59367L92.4386 9.79235L92.5095 10.0894L93.3492 13.6098L90.2606 11.7233L90 11.5641L89.7394 11.7233L86.6508 13.6098L87.4905 10.0894L87.5614 9.79235L87.3295 9.59367L84.5809 7.23921L88.1884 6.95L88.4929 6.92559L88.6101 6.64361L90 3.30198Z" stroke="#A38D5E"/>
</svg>
