<svg width="62" height="114" viewBox="0 0 62 114" fill="none" xmlns="http://www.w3.org/2000/svg">
<g clip-path="url(#clip0_8_42)">
<path d="M-36.8128 68.8453C-51.0271 89.1159 -55.5693 104.481 -49.2209 111.025C-47.3364 112.97 -44.6396 113.971 -41.1982 114C-34.5043 114.057 -25.1349 110.363 -14.5614 103.886C-7.16207 108.535 1.55537 111.264 10.9176 111.264C37.4369 111.264 59.0114 89.6895 59.0114 63.1702C59.0114 53.808 56.2789 45.0905 51.6334 37.6912C58.0281 27.335 61.9861 17.8338 61.9861 10.8976C61.9861 7.63083 61.1132 4.93045 59.2216 2.97464C52.8981 -3.55542 37.0521 1.00814 16.8349 15.1905C16.7352 15.2581 16.6746 15.3579 16.5962 15.4398C14.7295 15.219 12.8449 15.0729 10.9212 15.0729C-15.5981 15.0729 -37.1726 36.6474 -37.1726 63.1666C-37.1761 65.094 -37.0336 66.9821 -36.8128 68.8453ZM-41.1661 110.437C-43.6171 110.416 -45.4661 109.778 -46.6595 108.549C-51.2053 103.854 -46.9944 90.4376 -35.9364 73.8684C-33.3571 85.1722 -26.7843 94.9406 -17.7854 101.67C-27.1726 107.274 -35.4056 110.487 -41.1661 110.437ZM55.4489 63.1702C55.4489 87.7265 35.4739 107.701 10.9176 107.701C2.85924 107.701 -4.68257 105.518 -11.2126 101.759C-0.724633 94.9156 10.7502 85.5463 21.9115 74.417C32.5349 63.8257 42.2783 52.0588 49.5066 41.04C53.2651 47.57 55.4489 55.1154 55.4489 63.1702ZM56.6601 5.45414C60.6002 9.51895 58.0495 20.3668 49.5138 34.599C42.7664 25.511 32.9267 18.8776 21.5339 16.2984C38.413 4.95896 52.0502 0.694644 56.6601 5.45414ZM10.9176 18.639C26.0582 18.639 39.439 26.2485 47.4867 37.8266C40.9352 48.0581 31.5481 59.7787 19.3964 71.8948C8.01062 83.2485 -3.87745 92.8708 -14.5258 99.6645C-26.0469 91.6061 -33.6136 78.2645 -33.6136 63.1702C-33.6136 38.6175 -13.6387 18.639 10.9176 18.639Z" fill="#A38D5E"/>
<path d="M28.8153 46.7543C28.8153 42.8248 25.6197 39.6293 21.6903 39.6293C17.7609 39.6293 14.5653 42.8248 14.5653 46.7543C14.5653 50.6837 17.7609 53.8793 21.6903 53.8793C25.6197 53.8793 28.8153 50.6837 28.8153 46.7543ZM18.1278 46.7543C18.1278 44.7913 19.7274 43.1918 21.6903 43.1918C23.6532 43.1918 25.2528 44.7913 25.2528 46.7543C25.2528 48.7172 23.6532 50.3168 21.6903 50.3168C19.7274 50.3168 18.1278 48.7172 18.1278 46.7543Z" fill="#A38D5E"/>
<path d="M7.12329 96.2765C7.12329 100.206 10.3189 103.401 14.2483 103.401C18.1777 103.401 21.3733 100.206 21.3733 96.2765C21.3733 92.3471 18.1777 89.1515 14.2483 89.1515C10.3189 89.1515 7.12329 92.3471 7.12329 96.2765ZM17.8108 96.2765C17.8108 98.2394 16.2112 99.839 14.2483 99.839C12.2854 99.839 10.6858 98.2394 10.6858 96.2765C10.6858 94.3136 12.2854 92.714 14.2483 92.714C16.2112 92.714 17.8108 94.3136 17.8108 96.2765Z" fill="#A38D5E"/>
</g>
<defs>
<clipPath id="clip0_8_42">
<rect width="114" height="114" fill="white" transform="translate(-52 114) rotate(-90)"/>
</clipPath>
</defs>
</svg>
